Coordinates
version=1
nRows=11
nColumns=36
inDegrees=yes

Units are S.I. units (second, meters, Newtons, ...)
If the header above contains a line with 'inDegrees', this indicates whether rotational values are in degrees (yes) or radians (no).

endheader
time	pelvis_tilt	pelvis_list	pelvis_rotation	pelvis_tx	pelvis_ty	pelvis_tz	hip_flexion_r	hip_adduction_r	hip_rotation_r	knee_angle_r	knee_angle_r_beta	ankle_angle_r	subtalar_angle_r	mtp_angle_r	hip_flexion_l	hip_adduction_l	hip_rotation_l	knee_angle_l	knee_angle_l_beta	ankle_angle_l	subtalar_angle_l	mtp_angle_l	lumbar_extension	lumbar_bending	lumbar_rotation	arm_flex_r	arm_add_r	arm_rot_r	elbow_flex_r	pro_sup_r	arm_flex_l	arm_add_l	arm_rot_l	elbow_flex_l	pro_sup_l
      1.71666670	    -21.72067296	      1.41024590	     -0.19738686	     -0.93510619	      1.12926952	     -0.09683453	     50.01455454	     -1.77409292	      1.36371927	     71.29431297	      1.24432050	     35.22187841	    -21.62095870	     -7.49999987	     50.26720894	      0.19128282	      1.89112681	     73.97138043	      1.29104414	     29.06191881	    -11.63285029	     -7.49999987	    -24.60544128	      1.40870635	      3.18260253	     65.06033582	    -15.37539671	     14.89372762	     97.59461081	     86.25737460	     69.43339197	     -2.45689845	     18.27137490	     89.22283049	     68.58664074
      1.72083330	    -21.79201450	      1.70988850	     -0.44923445	     -0.93311638	      1.13388801	     -0.09592429	     49.50092384	     -1.62475023	      1.81390095	     70.25433801	      1.22616951	     34.97624908	    -21.40720987	     -7.49999987	     49.44625525	      0.16685453	      1.51827789	     72.72775788	      1.26933883	     28.38807234	    -12.15326705	     -7.49999987	    -24.30613754	      0.86040728	      3.02580997	     66.06250479	    -15.24588101	     15.18903653	     98.25502073	     85.36126629	     70.39928056	     -3.59749472	     17.87032983	     89.93438072	     68.03349911
      1.72500000	    -21.94860366	      1.69982141	     -0.62107935	     -0.92053573	      1.13728512	     -0.09685284	     48.41124778	     -1.38791252	      1.96169425	     68.88321994	      1.20223899	     34.66497362	    -20.75100316	     -7.49999987	     48.33305075	     -0.00225117	      1.40943956	     71.35909274	      1.24545112	     27.86403695	    -11.92893878	     -7.49999987	    -23.38668584	      0.68678570	      3.01445341	     66.12582575	    -15.17322746	     15.11319130	     97.80673959	     85.42049671	     70.55317983	     -3.97727301	     17.71296374	     89.64593552	     67.93572685
      1.72916670	    -21.61399114	      1.79558246	     -0.75386842	     -0.91883304	      1.13744771	     -0.09640988	     47.46124993	     -1.54534710	      1.99974644	     68.27089040	      1.19155182	     34.51152844	    -20.86983035	     -7.49999987	     47.15776107	      0.01415488	      1.24707217	     70.48018726	      1.23011133	     27.44096655	    -12.23610723	     -7.49999987	    -23.06004955	      0.47549930	      2.75473990	     66.50861446	    -14.89308899	     15.12073980	     97.13773840	     83.07025824	     71.54555890	     -4.46210646	     17.23040357	     89.47873516	     66.61101484
      1.73333330	    -21.59398361	      1.71969738	     -0.54631987	     -0.91287136	      1.14528103	     -0.09265074	     46.44746414	     -1.48330466	      1.73955670	     67.26429811	      1.17398347	     34.39331989	    -20.70440059	     -7.49999987	     46.14386562	     -0.08467112	      1.40353550	     69.23712111	      1.20841573	     27.01852859	    -12.14870037	     -7.49999987	    -22.39907819	      0.40511937	      2.78430608	     66.67144010	    -14.57584681	     14.78440331	     97.06010788	     83.23367390	     72.01360507	     -4.55345708	     16.89537433	     89.54507682	     66.44340254
      1.73750000	    -20.96615847	      1.80246200	     -0.54841193	     -0.89283452	      1.14966498	     -0.09821737	     44.21359153	     -1.71049490	      1.63574352	     66.10861832	      1.15381305	     34.31967446	    -20.18630065	     -7.49999987	     43.71458046	      0.10659085	      1.29409297	     67.70160864	      1.18161598	     27.18610103	    -11.60102306	     -7.49999987	    -22.04040270	      0.43017323	      2.54931762	     65.89169350	    -14.08671864	     14.19248407	     97.41199343	     83.63704988	     71.20764244	     -4.62163986	     16.40181634	     90.24639185	     66.06810263
      1.74166670	    -20.55147035	      1.77378808	     -0.74677029	     -0.88119055	      1.15364853	     -0.09961828	     41.99563783	     -1.84434573	      1.39953276	     64.74168038	      1.12995549	     34.04152637	    -20.31468821	     -7.49999987	     41.54948400	      0.31094746	      1.34665633	     66.19858941	      1.15538335	     26.77012518	    -11.99752356	     -7.49999987	    -21.31615482	      0.55338054	      2.55624178	     64.65451004	    -14.06112778	     14.16869859	     98.00396583	     82.68525127	     69.68160915	     -4.57049656	     15.99616342	     91.45046102	     65.34218784
      1.74583330	    -20.03016586	      1.76456971	     -0.78810153	     -0.87413348	      1.15809566	     -0.10445574	     39.81008897	     -2.32844026	      1.00191948	     63.07640802	      1.10089100	     33.16990823	    -21.18373390	     -7.49999987	     39.48465027	      0.82858577	      1.52925033	     64.84370966	      1.13173623	     26.07697898	    -12.28545262	     -7.49999987	    -20.58369594	      0.99933713	      2.20756224	     64.13733058	    -13.23087769	     14.58019003	     97.35325912	     86.64356881	     68.50775490	     -4.75340220	     15.80802775	     92.55784650	     62.69272931
      1.75000000	    -19.87244521	      1.80285796	     -0.84554053	     -0.86319912	      1.16281973	     -0.10560508	     38.14710284	     -2.77002655	      0.70789562	     61.86261408	      1.07970630	     32.84453830	    -21.23324808	     -7.49999987	     37.67161680	      1.14607375	      1.57039949	     63.06150230	      1.10063085	     26.43245985	    -12.39578720	     -7.49999987	    -19.17943236	      1.31302145	      2.30180571	     62.47553436	    -13.14609284	     14.71194053	     97.73595737	     86.67476248	     66.73866167	     -4.71209297	     15.97653774	     92.98756144	     62.67717350
      1.75416670	    -19.97871527	      1.62504086	     -1.16591821	     -0.86784521	      1.16723753	     -0.10023701	     37.88071599	     -2.46633500	      0.57728077	     60.76893368	      1.06061798	     31.87790426	    -22.70440369	     -7.49999987	     37.31054748	      1.09078610	      1.94850175	     61.94098324	      1.08107410	     25.97979622	    -12.94914978	     -7.49999987	    -18.58082638	      1.24338246	      2.28424102	     61.95408025	    -12.48480874	     14.22010685	     98.91724625	     86.71446495	     66.32741635	     -4.90533488	     15.74127280	     95.11062980	     62.59163064
      1.75833330	    -19.78827419	      1.48349982	     -1.60776349	     -0.85684247	      1.17172439	     -0.10168544	     36.97616543	     -2.17927177	      0.66225254	     59.94495120	      1.04623677	     30.72853426	    -23.10957277	     -7.49999987	     36.32668921	      0.83632965	      2.18412032	     60.94829397	      1.06374840	     25.49140893	    -13.39874837	     -7.49999987	    -17.84518163	      1.40104268	      2.16448580	     61.78037168	    -11.85365434	     14.42059221	     98.71992635	     86.78816272	     65.52045871	     -5.37958024	     15.73672320	     95.78705359	     62.42897558
